<svg xmlns="http://www.w3.org/2000/svg" viewBox="0 0 600 900" role="img" aria-label="The Whistling Secret — placeholder cover">
  <defs>
    <linearGradient id="bg" x1="0" y1="0" x2="0" y2="1">
      <stop offset="0" stop-color="#12303c"/><stop offset="1" stop-color="#1f5e52"/>
    </linearGradient>
  </defs>
  <rect width="600" height="900" fill="url(#bg)"/>
  <g fill="#f3ead8" opacity=".8">
    <circle cx="80" cy="90" r="2"/><circle cx="210" cy="60" r="1.5"/><circle cx="380" cy="100" r="2"/>
    <circle cx="500" cy="70" r="1.5"/><circle cx="540" cy="180" r="2"/><circle cx="60" cy="220" r="1.5"/>
  </g>
  <g transform="translate(300,290)">
    <circle r="118" fill="none" stroke="#ecc36a" stroke-width="5"/>
    <circle r="96" fill="none" stroke="#ecc36a" stroke-width="4" stroke-linecap="round" stroke-dasharray="0 18.8" opacity=".85"/>
    <circle r="62" fill="none" stroke="#ecc36a" stroke-width="3"/>
    <ellipse rx="27" ry="39" fill="#ecc36a"/>
    <path d="M0,-31 c-4,10 -4,52 0,62 c4,-10 4,-52 0,-62 Z" fill="#1f5e52"/>
  </g>
  <path d="M0,800 Q150,760 300,780 T600,775 L600,900 L0,900 Z" fill="#0a0a20" opacity=".55"/>
  <text x="300" y="560" text-anchor="middle" font-family="Georgia, serif" font-size="60" fill="#f3ead8">The Whistling</text>
  <text x="300" y="628" text-anchor="middle" font-family="Georgia, serif" font-size="60" fill="#f3ead8">Secret</text>
  <text x="300" y="690" text-anchor="middle" font-family="Georgia, serif" font-style="italic" font-size="24" fill="#ecc36a">A Yama Story</text>
  <text x="300" y="852" text-anchor="middle" font-family="Verdana, sans-serif" font-size="20" letter-spacing="6" fill="#f3ead8" opacity=".85">PAWA SEYNI</text>
</svg>
